<?xml version="1.0" standalone="no"?>
<!DOCTYPE svg PUBLIC "-//W3C//DTD SVG 20010904//EN"
 "http://www.w3.org/TR/2001/REC-SVG-20010904/DTD/svg10.dtd">
<svg version="1.0" xmlns="http://www.w3.org/2000/svg"
 width="500.000000pt" height="500.000000pt" viewBox="0 0 500.000000 500.000000"
 preserveAspectRatio="xMidYMid meet">

<g transform="translate(0.000000,500.000000) scale(0.100000,-0.100000)"
fill="#2B4577" stroke="none">
<path d="M2415 2823 c-138 -14 -195 -42 -195 -97 0 -17 7 -41 15 -52 13 -20
27 -22 207 -28 176 -6 294 -13 538 -32 l85 -7 -25 28 c-34 36 -140 98 -221
129 -116 43 -298 70 -404 59z"/>
<path d="M2153 2783 c-60 -21 -103 -63 -103 -102 0 -51 19 -84 196 -341 266
-385 310 -462 340 -599 14 -63 15 -85 5 -136 -21 -108 -31 -95 117 -145 125
-42 134 -44 160 -30 62 35 90 176 57 299 -44 169 -128 283 -449 610 -253 258
-326 344 -326 384 0 10 14 32 31 48 35 33 32 34 -28 12z"/>
<path d="M1475 2480 c-247 -98 -471 -187 -497 -198 -46 -19 -64 -42 -34 -42 8
0 16 -10 18 -22 2 -17 13 -25 39 -32 58 -14 72 -4 67 49 l-3 45 420 140 c231
77 425 144 430 148 16 11 35 92 21 91 -6 -1 -213 -81 -461 -179z"/>
<path d="M2295 2620 c-5 -8 567 -571 587 -579 5 -2 -14 31 -43 72 -28 41 -49
82 -46 89 4 12 43 16 194 21 207 6 332 -1 356 -22 9 -7 33 -42 53 -78 43 -78
56 -76 20 3 -15 31 -25 59 -23 60 6 6 93 -120 141 -203 100 -173 124 -339 63
-431 -15 -23 -32 -42 -38 -42 -6 0 -1 13 10 29 46 64 49 164 9 285 -22 67 -82
191 -97 200 -5 4 -61 12 -123 18 -151 15 -528 -9 -528 -34 0 -5 17 -35 38 -66
95 -142 132 -235 132 -332 0 -75 -16 -116 -64 -158 -50 -43 -38 -47 143 -39
247 11 470 53 518 99 42 39 66 97 70 173 9 145 -42 287 -162 447 -78 104 -353
394 -403 425 -39 24 -41 24 -462 48 -146 8 -282 17 -302 19 -21 2 -40 0 -43
-4z m495 -65 c151 -9 280 -18 286 -20 16 -5 175 -218 171 -230 -2 -6 -104 -11
-275 -13 l-272 -2 -112 102 c-61 57 -126 116 -144 131 -19 16 -34 33 -34 38 0
13 63 12 380 -6z"/>
<path d="M2016 2503 l-39 -25 7 -61 c12 -115 27 -159 65 -181 36 -21 166 -34
189 -18 10 7 -8 45 -75 157 -48 82 -92 150 -98 151 -5 2 -27 -9 -49 -23z"/>
<path d="M1564 2367 c-2 -7 -3 -58 -2 -113 3 -91 5 -99 23 -99 19 0 20 8 23
113 3 107 2 112 -18 112 -11 0 -23 -6 -26 -13z"/>
<path d="M1285 2316 c-72 -17 -136 -35 -143 -39 -6 -5 -12 -28 -12 -51 l0 -44
43 -5 c23 -4 92 -9 153 -13 111 -6 111 -6 117 17 9 31 9 133 1 153 -8 20 -2
20 -159 -18z"/>
<path d="M952 2149 c-7 -12 -12 -22 -10 -23 2 -1 57 -19 123 -40 66 -20 343
-108 615 -194 l495 -158 48 -64 c94 -126 137 -160 205 -160 69 0 102 63 68
128 -43 82 -139 129 -400 193 -111 28 -244 61 -296 75 -171 45 -713 208 -702
212 5 1 137 -17 293 -42 637 -102 993 -156 997 -152 2 3 -13 16 -35 30 -33 22
-74 30 -313 65 -151 22 -444 65 -650 96 -206 30 -386 55 -400 55 -15 0 -31 -9
-38 -21z"/>
</g>
</svg>
